<svg width="640" height="640" viewBox="0 0 640 640" fill="none" xmlns="http://www.w3.org/2000/svg">
<path d="M320 60H580V320C580 463.594 463.594 580 320 580C176.406 580 60 463.594 60 320C60 176.406 176.406 60 320 60Z" fill="#D0EBFF" stroke="#228BE6" stroke-width="120"/>
<path fill-rule="evenodd" clip-rule="evenodd" d="M330.208 531.771C330.203 531.789 330.002 531.704 329.619 531.463C330.021 531.634 330.213 531.754 330.208 531.771ZM320 521.583C324.006 516.332 329.024 508.534 334.75 497.081C354.568 457.445 370 394.991 370 320C370 303.398 369.244 287.411 367.851 272.149C352.589 270.756 336.602 270 320 270C245.009 270 182.555 285.432 142.919 305.25C131.466 310.976 123.668 315.994 118.417 320H0C0 231.634 143.269 160 320 160C327.595 160 335.127 160.132 342.589 160.392C340.077 154.161 337.454 148.328 334.75 142.919C329.024 131.466 324.006 123.668 320 118.417V0C382.639 0 436.871 71.991 463.14 176.86C568.009 203.129 640 257.361 640 320H521.583C516.332 315.994 508.534 310.976 497.081 305.25C491.672 302.546 485.839 299.923 479.608 297.411C479.868 304.873 480 312.405 480 320C480 496.731 408.366 640 320 640V521.583ZM330.208 108.229C330.213 108.246 330.021 108.366 329.619 108.537C330.002 108.296 330.203 108.211 330.208 108.229ZM531.771 309.792C531.789 309.797 531.704 309.998 531.463 310.381C531.634 309.979 531.754 309.787 531.771 309.792ZM108.229 309.792C108.246 309.787 108.366 309.979 108.537 310.381C108.296 309.998 108.211 309.797 108.229 309.792Z" fill="#4DABF7"/>
</svg>
